<?xml version="1.0" encoding="UTF-8"?>
<svg width="36px" height="36px" viewBox="0 0 36 36" version="1.1" xmlns="http://www.w3.org/2000/svg" xmlns:xlink="http://www.w3.org/1999/xlink">
    <!-- Generator: Sketch 50.2 (55047) - http://www.bohemiancoding.com/sketch -->
    <title>001-mail</title>
    <desc>Created with Sketch.</desc>
    <defs></defs>
    <g id="Page-1" stroke="none" stroke-width="1" fill="none" fill-rule="evenodd" opacity="0.499274554">
        <g id="Employee-Profile" transform="translate(-1043.000000, -510.000000)" fill="#000000" fill-rule="nonzero">
            <g id="001-mail" transform="translate(1043.000000, 510.000000)">
                <path d="M18,4.21875 C13.36824,4.21875 9.6,7.53067969 9.6,11.6015625 C9.6,14.1288047 11.05008,16.4541797 13.47896,17.8218984 C15.9592,19.2185156 19.00376,19.3669453 21.83304,18.2228906 C22.43504,17.9794688 22.69864,17.353125 22.4216,16.8239531 C22.14464,16.2948516 21.43208,16.0631719 20.82992,16.3065938 C18.76112,17.1431719 16.5536,17.0480391 14.77368,16.0458047 C13.03688,15.0678281 12,13.4064141 12,11.6015625 C12,8.69378906 14.6916,6.328125 18,6.328125 C21.3084,6.328125 24,8.69378906 24,11.6015625 C24,12.1831172 23.46168,12.65625 22.8,12.65625 C22.19536,12.65625 21.63056,12.2532188 21.60016,11.6175938 C21.60008,11.61225 21.6,11.6069063 21.6,11.6015625 C21.6,9.85689844 19.98504,8.4375 18,8.4375 C16.01496,8.4375 14.4,9.85689844 14.4,11.6015625 C14.4,13.3462266 16.01496,14.765625 18,14.765625 C18.92128,14.765625 19.76248,14.4595547 20.39992,13.9574531 C21.03728,14.459625 21.87864,14.765625 22.8,14.765625 C24.78504,14.765625 26.4,13.3462266 26.4,11.6015625 C26.4,7.53067969 22.63176,4.21875 18,4.21875 Z M19.18312,11.7707344 C19.09048,12.2719922 18.596,12.65625 18,12.65625 C17.33832,12.65625 16.8,12.1831172 16.8,11.6015625 C16.8,11.0200078 17.33832,10.546875 18,10.546875 C18.61528,10.546875 19.1232,10.9560938 19.1916,11.4809766 C19.17368,11.5768125 19.17072,11.6743359 19.18312,11.7707344 Z" id="Shape"></path>
                <path d="M35.99992,13.849875 C35.9996,13.5771328 35.87464,13.3045313 35.64848,13.1057578 L31.2,9.19596094 L31.2,1.0546875 C31.2,0.47221875 30.66272,0 30,0 L6,0 C5.33728,0 4.8,0.47221875 4.8,1.0546875 L4.8,9.19596094 L0.35152,13.1057578 C0.34736,13.1094141 0.34384,13.1134922 0.33976,13.1172188 C0.11488,13.3208438 0.00056,13.5889453 8e-05,13.849875 C8e-05,13.8505781 0,13.8512109 0,13.8519141 L0,32.8359375 C0,34.5828516 1.61728,36 3.6,36 L32.4,36 C34.38712,36 36,34.5791953 36,32.8359375 L36,13.8519141 C36,13.8512109 35.99992,13.8505781 35.99992,13.849875 Z M31.2,12.1790391 L33.10296,13.8515625 L31.2,15.5240859 L31.2,12.1790391 Z M7.2,9.63316406 C7.2,9.63295313 7.2,9.63267188 7.2,9.63246094 L7.2,2.109375 L28.8,2.109375 L28.8,9.63246094 C28.8,9.63267188 28.8,9.63295313 28.8,9.63316406 L28.8,17.6334609 L22.30296,23.34375 L13.69704,23.34375 L7.2,17.6334609 L7.2,9.63316406 Z M4.8,12.1790391 L4.8,15.5240859 L2.89704,13.8515625 L4.8,12.1790391 Z M2.4,32.3990859 L2.4,16.3977891 L11.50296,24.3984375 L2.4,32.3990859 Z M4.09712,33.890625 L13.69704,25.453125 L22.30296,25.453125 L31.90288,33.890625 L4.09712,33.890625 Z M33.6,32.3990859 L24.49704,24.3984375 L33.6,16.3977891 L33.6,32.3990859 Z" id="Shape"></path>
            </g>
        </g>
    </g>
</svg>