<?xml version="1.0" encoding="UTF-8"?>
<svg width="40px" height="40px" viewBox="0 0 40 40" version="1.1" xmlns="http://www.w3.org/2000/svg" xmlns:xlink="http://www.w3.org/1999/xlink">
    <!-- Generator: Sketch 50.2 (55047) - http://www.bohemiancoding.com/sketch -->
    <title>003-phone</title>
    <desc>Created with Sketch.</desc>
    <defs></defs>
    <g id="Page-1" stroke="none" stroke-width="1" fill="none" fill-rule="evenodd" opacity="0.499274554">
        <g id="Employee-Profile" transform="translate(-1044.000000, -570.000000)" fill="#000000" fill-rule="nonzero">
            <g id="003-phone" transform="translate(1044.000000, 570.000000)">
                <path d="M36.9812819,29.679898 L32.0378028,24.5638928 C32.0331993,24.5591323 32.0285178,24.5543717 32.0238362,24.5496892 C30.6516749,23.1772529 28.4309053,23.1770968 27.058666,24.5496892 L24.8016924,26.8070373 C23.7623111,27.846705 22.0798413,27.8468611 21.0403039,26.8070373 C21.0398357,26.806569 21.0393675,26.8061008 21.0388994,26.8056325 L13.1900526,19.1408727 C12.1505932,18.1012049 12.1504371,16.4183978 13.1900526,15.378652 L15.4469481,13.1213039 C16.8159103,11.7521453 16.8159103,9.52429692 15.4469481,8.15513827 L10.4817779,3.18897261 C9.11281565,1.81989201 6.88549186,1.81989201 5.51660765,3.18897261 C5.5161395,3.18944086 3.8612128,4.84477739 3.86160293,4.84430914 C3.8612128,4.84477739 3.71155936,4.99438279 3.71116923,4.99485104 C-1.23628914,9.94322325 -1.23808374,17.9528481 3.71194949,22.9038738 L17.2788373,36.2878209 C22.215294,41.2252674 30.209815,41.2436851 35.1660903,36.3052242 C35.1932432,36.2801729 36.9472627,34.6642473 36.9734013,34.6381034 C38.3395546,33.2715201 38.3422075,31.0496809 36.9812819,29.679898 Z M7.1716904,4.84430914 C7.62798514,4.38792292 8.37040039,4.38792292 8.82669513,4.84430914 L13.7918654,9.8104748 C14.2492525,10.2680316 14.2493305,11.0083325 13.7918654,11.4658894 L12.964402,12.2935186 L6.34414903,5.67201642 L7.1716904,4.84430914 Z M18.9330617,34.631704 L5.36617396,21.2477568 C1.54306701,17.4238054 1.3617351,11.3938571 4.72035461,7.35864756 L11.3173559,13.9569714 C9.58947511,15.9190107 9.66133685,18.9222006 11.5364523,20.797692 L19.3867036,28.4638566 C21.2629894,30.3390358 24.2559801,30.4162187 26.223322,28.6802654 L32.8197772,35.278043 C28.7455833,38.6630895 22.7531257,38.4524558 18.9330617,34.631704 Z M35.3322071,32.9685633 L34.5457073,33.6934901 L27.8862074,27.032655 L28.7136707,26.2050258 C29.1695753,25.7491078 29.9054364,25.7477031 30.3629015,26.1991727 C30.3720306,26.2086157 35.3090335,31.3179873 35.3183186,31.3271962 C35.7700098,31.779056 35.7746133,32.5111626 35.3322071,32.9685633 Z" id="Shape"></path>
                <path d="M20.1666753,0 C19.5223943,0 19,0.537857659 19,1.2012101 C19,1.86456254 19.5223943,2.4024202 20.1666753,2.4024202 C29.8161901,2.4024202 37.6666494,10.4852612 37.6666494,20.4204115 C37.6666494,21.083764 38.1890436,21.6216216 38.8333247,21.6216216 C39.4776057,21.6216216 40,21.083844 40,20.4204115 C40,9.13396988 31.1294874,0 20.1666753,0 Z" id="Shape"></path>
                <path d="M20.1428626,4.32432432 C19.5117318,4.32432432 19,4.84297141 19,5.482631 C19,6.12229059 19.5117318,6.64093767 20.1428626,6.64093767 C27.0747101,6.64093767 32.7142748,12.3566355 32.7142748,19.3822339 C32.7142748,20.0218935 33.2260066,20.5405405 33.8571374,20.5405405 C34.4882682,20.5405405 35,20.0219707 35,19.3822339 C35,11.0793242 28.3350668,4.32432432 20.1428626,4.32432432 Z" id="Shape"></path>
                <path d="M20.200008,9.72972973 C19.5373194,9.72972973 19,10.2622084 19,10.9189268 C19,11.5756453 19.5373194,12.108124 20.200008,12.108124 C24.8317877,12.108124 28.599984,15.8423726 28.599984,20.4324245 C28.599984,21.0891429 29.1373034,21.6216216 29.799992,21.6216216 C30.4626806,21.6216216 31,21.0892222 31,20.4324245 C31,14.5309179 26.1551647,9.72972973 20.200008,9.72972973 Z" id="Shape"></path>
                <path d="M20.1666667,14.0540541 C19.5223904,14.0540541 19,14.6188004 19,15.3153153 C19,16.0118302 19.5223904,16.5765766 20.1666667,16.5765766 C22.0965398,16.5765766 23.6666667,18.273927 23.6666667,20.3603604 C23.6666667,21.0568753 24.189057,21.6216216 24.8333333,21.6216216 C25.4776096,21.6216216 26,21.0569594 26,20.3603604 C25.9999222,16.8830835 23.3831478,14.0540541 20.1666667,14.0540541 Z" id="Shape"></path>
            </g>
        </g>
    </g>
</svg>