<?xml version="1.0" encoding="UTF-8"?>
<svg width="50px" height="50px" viewBox="0 0 50 50" version="1.1" xmlns="http://www.w3.org/2000/svg" xmlns:xlink="http://www.w3.org/1999/xlink">
    <!-- Generator: Sketch 50.2 (55047) - http://www.bohemiancoding.com/sketch -->
    <title>Instagram</title>
    <desc>Created with Sketch.</desc>
    <defs>
        <rect id="path-1" x="0" y="0" width="50" height="50" rx="25"></rect>
        <path d="M0,25 C0,11.1928813 11.1898454,0 25,0 C38.8071187,0 50,11.1898454 50,25 C50,38.8071187 38.8101546,50 25,50 C11.1928813,50 0,38.8101546 0,25 Z M2,25 C2,37.7053422 12.2974508,48 25,48 C37.7053422,48 48,37.7025492 48,25 C48,12.2946578 37.7025492,2 25,2 C12.2946578,2 2,12.2974508 2,25 Z" id="path-3"></path>
        <path d="M22.8428645,7.88356517 C23.0736734,8.47501288 23.2323545,9.15301391 23.2756311,10.1483771 C23.3261206,11.1437403 23.3333333,11.4611025 23.3333333,14 C23.3333333,16.5388975 23.3189078,16.8562597 23.2756311,17.8516229 C23.2323545,18.8397733 23.0736734,19.5249871 22.8428645,20.1164348 C22.6048429,20.7295209 22.2874807,21.2488408 21.7681607,21.7681607 C21.2488408,22.2874807 20.7295209,22.6048429 20.1164348,22.8428645 C19.5249871,23.0736734 18.8469861,23.2323545 17.8516229,23.2756311 C16.8562597,23.3261206 16.5388975,23.3333333 14,23.3333333 C11.4611025,23.3333333 11.1437403,23.3189078 10.1483771,23.2756311 C9.16022669,23.2323545 8.47501288,23.0736734 7.88356517,22.8428645 C7.27047913,22.6048429 6.7511592,22.2874807 6.23183926,21.7681607 C5.71251932,21.2488408 5.39515714,20.7295209 5.1571355,20.1164348 C4.92632664,19.5249871 4.76764554,18.8469861 4.72436888,17.8516229 C4.67387944,16.8562597 4.66666667,16.5388975 4.66666667,14 C4.66666667,11.4611025 4.68109222,11.1437403 4.72436888,10.1483771 C4.76764554,9.16022669 4.92632664,8.47501288 5.1571355,7.88356517 C5.39515714,7.27047913 5.71251932,6.7511592 6.23183926,6.23183926 C6.7511592,5.71251932 7.27047913,5.39515714 7.88356517,5.1571355 C8.47501288,4.92632664 9.15301391,4.76764554 10.1483771,4.72436888 C11.1437403,4.67387944 11.4611025,4.66666667 14,4.66666667 C16.5388975,4.66666667 16.8562597,4.68109222 17.8516229,4.72436888 C18.8397733,4.76764554 19.5249871,4.92632664 20.1164348,5.1571355 C20.7295209,5.39515714 21.2488408,5.71251932 21.7681607,6.23183926 C22.2874807,6.7511592 22.6048429,7.27047913 22.8428645,7.88356517 Z M20.9472693,17.4472693 C20.9868173,16.5508475 21,16.2740113 21,14 C21,11.7259887 20.9868173,11.4557439 20.9472693,10.5527307 C20.9077213,9.72222222 20.7693032,9.2740113 20.6506591,8.97080979 C20.492467,8.56873823 20.3079096,8.28531073 20.0112994,7.98870056 C19.7146893,7.6920904 19.4246704,7.50094162 19.0291902,7.34934087 C18.73258,7.2306968 18.2777778,7.09227872 17.4472693,7.0527307 C16.5508475,7.00659134 16.2740113,7 14,7 C11.7259887,7 11.4557439,7.01318267 10.5527307,7.0527307 C9.72222222,7.09227872 9.2740113,7.2306968 8.97080979,7.34934087 C8.56873823,7.50753296 8.28531073,7.6920904 7.98870056,7.98870056 C7.6920904,8.28531073 7.50094162,8.57532957 7.34934087,8.97080979 C7.2306968,9.26741996 7.09227872,9.72222222 7.0527307,10.5527307 C7.00659134,11.4491525 7,11.7259887 7,14 C7,16.2740113 7.01318267,16.5442561 7.0527307,17.4472693 C7.09227872,18.2777778 7.2306968,18.7259887 7.34934087,19.0291902 C7.50753296,19.4312618 7.6920904,19.7146893 7.98870056,20.0112994 C8.28531073,20.3079096 8.57532957,20.4990584 8.97080979,20.6506591 C9.26741996,20.7693032 9.72222222,20.9077213 10.5527307,20.9472693 C11.4491525,20.9934087 11.7193974,21 14,21 C16.2806026,21 16.5442561,20.9868173 17.4472693,20.9472693 C18.2777778,20.9077213 18.7259887,20.7693032 19.0291902,20.6506591 C19.4312618,20.492467 19.7146893,20.3079096 20.0112994,20.0112994 C20.3079096,19.7146893 20.4990584,19.4246704 20.6506591,19.0291902 C20.7693032,18.73258 20.9077213,18.2777778 20.9472693,17.4472693 Z M18.6666667,10.5 C18.0223345,10.5 17.5,9.97766554 17.5,9.33333333 C17.5,8.68900113 18.0223345,8.16666667 18.6666667,8.16666667 C19.3109989,8.16666667 19.8333333,8.68900113 19.8333333,9.33333333 C19.8333333,9.97766554 19.3109989,10.5 18.6666667,10.5 Z M14,9.33333333 C16.5754386,9.33333333 18.6666667,11.4245614 18.6666667,14 C18.6666667,16.5754386 16.5754386,18.6666667 14,18.6666667 C11.4245614,18.6666667 9.33333333,16.5754386 9.33333333,14 C9.33333333,11.4245614 11.4245614,9.33333333 14,9.33333333 Z M14,16.3333333 C15.2854938,16.3333333 16.3333333,15.2854938 16.3333333,14 C16.3333333,12.7091049 15.2908951,11.6666667 14,11.6666667 C12.7091049,11.6666667 11.6666667,12.7145062 11.6666667,14 C11.6666667,15.2908951 12.7145062,16.3333333 14,16.3333333 Z" id="path-5"></path>
    </defs>
    <g id="Page-1" stroke="none" stroke-width="1" fill="none" fill-rule="evenodd">
        <g id="Employee-Profile" transform="translate(-694.000000, -1886.000000)">
            <g id="Footer" transform="translate(0.000000, 1851.000000)">
                <g id="Social" transform="translate(624.000000, 35.000000)">
                    <g id="1.-Buttons/2.-Default-Button/4.-Rounded-Button" transform="translate(70.000000, 0.000000)">
                        <g id="6.-Elements/2.-Base/1.-Base/Fill/Radius-30">
                            <mask id="mask-2" fill="white">
                                <use xlink:href="#path-1"></use>
                            </mask>
                            <g id="Mask"></g>
                            <g id="5.-Colors-and-Gradients/1.-Colors/Blue" mask="url(#mask-2)" fill="#0078FF" fill-rule="evenodd">
                                <rect id="Base" x="0" y="0" width="50" height="50"></rect>
                            </g>
                        </g>
                        <g id="6.-Elements/2.-Base/1.-Base/Outline/Radius-30">
                            <mask id="mask-4" fill="white">
                                <use xlink:href="#path-3"></use>
                            </mask>
                            <g id="Mask"></g>
                            <g id="5.-Colors-and-Gradients/1.-Colors/Gray/Gray-92" mask="url(#mask-4)" fill="#EBEBEB" fill-rule="evenodd">
                                <rect id="Base" x="0" y="0" width="50" height="50"></rect>
                            </g>
                        </g>
                        <g id="3.-Icons/ic_instagram" transform="translate(11.000000, 11.000000)">
                            <mask id="mask-6" fill="white">
                                <use xlink:href="#path-5"></use>
                            </mask>
                            <g id="instagram-icon"></g>
                            <g id="5.-Colors-and-Gradients/1.-Colors/Gray/Gray-70" mask="url(#mask-6)" fill="#B3B3B3" fill-rule="evenodd">
                                <g transform="translate(2.800000, 2.800000)" id="Base">
                                    <rect x="0" y="0" width="22" height="22"></rect>
                                </g>
                            </g>
                        </g>
                    </g>
                </g>
            </g>
        </g>
    </g>
</svg>