<?xml version="1.0" encoding="UTF-8"?>
<svg width="25px" height="36px" viewBox="0 0 25 36" version="1.1" xmlns="http://www.w3.org/2000/svg" xmlns:xlink="http://www.w3.org/1999/xlink">
    <!-- Generator: Sketch 50.2 (55047) - http://www.bohemiancoding.com/sketch -->
    <title>002-mobile-phone</title>
    <desc>Created with Sketch.</desc>
    <defs></defs>
    <g id="Page-1" stroke="none" stroke-width="1" fill="none" fill-rule="evenodd" opacity="0.499274554">
        <g id="Employee-Profile" transform="translate(-1053.000000, -634.000000)" fill="#000000" fill-rule="nonzero">
            <g id="002-mobile-phone" transform="translate(1053.000000, 634.000000)">
                <path d="M21.875,0 L3.125,0 C1.401875,0 0,1.41939844 0,3.1640625 L0,32.8359375 C0,34.5806016 1.401875,36 3.125,36 L21.875,36 C23.598125,36 25,34.5806016 25,32.8359375 L25,3.1640625 C25,1.41939844 23.598125,0 21.875,0 Z M22.9166667,32.8359375 C22.9166667,33.4174922 22.449375,33.890625 21.875,33.890625 L3.125,33.890625 C2.550625,33.890625 2.08333333,33.4174922 2.08333333,32.8359375 L2.08333333,29.671875 L22.9166667,29.671875 L22.9166667,32.8359375 Z M22.9166667,27.5625 L2.08333333,27.5625 L2.08333333,6.328125 L22.9166667,6.328125 L22.9166667,27.5625 Z M22.9166667,4.21875 L2.08333333,4.21875 L2.08333333,3.1640625 C2.08333333,2.58250781 2.550625,2.109375 3.125,2.109375 L21.875,2.109375 C22.449375,2.109375 22.9166667,2.58250781 22.9166667,3.1640625 L22.9166667,4.21875 Z" id="Shape"></path>
                <path d="M6.25,14.90625 C5.10125,14.90625 4.16666667,15.8525156 4.16666667,17.015625 C4.16666667,18.1787344 5.10125,19.125 6.25,19.125 C7.39875,19.125 8.33333333,18.1787344 8.33333333,17.015625 C8.33333333,15.8525156 7.39875,14.90625 6.25,14.90625 Z" id="Shape"></path>
                <path d="M12.5,14.90625 C11.35125,14.90625 10.4166667,15.8525156 10.4166667,17.015625 C10.4166667,18.1787344 11.35125,19.125 12.5,19.125 C13.64875,19.125 14.5833333,18.1787344 14.5833333,17.015625 C14.5833333,15.8525156 13.64875,14.90625 12.5,14.90625 Z" id="Shape"></path>
                <path d="M18.75,14.90625 C17.60125,14.90625 16.6666667,15.8525156 16.6666667,17.015625 C16.6666667,18.1787344 17.60125,19.125 18.75,19.125 C19.89875,19.125 20.8333333,18.1787344 20.8333333,17.015625 C20.8333333,15.8525156 19.89875,14.90625 18.75,14.90625 Z" id="Shape"></path>
            </g>
        </g>
    </g>
</svg>