<?xml version="1.0" encoding="UTF-8"?>
<svg width="23px" height="15px" viewBox="0 0 23 15" version="1.1" xmlns="http://www.w3.org/2000/svg" xmlns:xlink="http://www.w3.org/1999/xlink">
    <!-- Generator: Sketch 50.2 (55047) - http://www.bohemiancoding.com/sketch -->
    <title>united-states</title>
    <desc>Created with Sketch.</desc>
    <defs></defs>
    <g id="Page-1" stroke="none" stroke-width="1" fill="none" fill-rule="evenodd">
        <g id="Employee-Profile" transform="translate(-417.000000, -514.000000)" fill-rule="nonzero">
            <g id="united-states" transform="translate(417.000000, 514.000000)">
                <path d="M21.2774707,0 L1.7225293,0 C0.771173828,0 0,0.767642771 0,1.71464217 L0,13.2853578 C0,14.2323125 0.771173828,15 1.7225293,15 L21.2774707,15 C22.2287812,15 23,14.2323572 23,13.2853578 L23,1.71464217 C23,0.767642771 22.2288262,0 21.2774707,0 Z" id="Shape" fill="#F5F5F5"></path>
                <g id="Group" fill="#FF4B55">
                    <path d="M0.0947402344,1.16428571 L22.9052148,1.16428571 C22.6718008,0.493883929 22.0313945,0.0123214286 21.2774707,0.0123214286 L1.7225293,0.0123214286 C0.968560547,0.0123214286 0.328199219,0.493883929 0.0947402344,1.16428571 Z" id="Shape"></path>
                    <rect id="Rectangle-path" x="0" y="4.62008929" width="23" height="1.15191964"></rect>
                    <rect id="Rectangle-path" x="0" y="2.31607143" width="23" height="1.15191964"></rect>
                    <path d="M0,7.681875 C0,7.89950893 0.177576172,8.07598214 0.396570312,8.07598214 L23,8.07598214 L23,6.92401786 L0,6.92401786 L0,7.681875 Z" id="Shape"></path>
                    <rect id="Rectangle-path" x="0" y="11.5321429" width="23" height="1.15196429"></rect>
                    <path d="M22.9052598,13.8357143 L0.0947402344,13.8357143 C0.328199219,14.5061161 0.968605469,14.9876786 1.7225293,14.9876786 L21.2774707,14.9876786 C22.0314395,14.9876786 22.6718008,14.5061161 22.9052598,13.8357143 Z" id="Shape"></path>
                    <rect id="Rectangle-path" x="0" y="9.228125" width="23" height="1.15191964"></rect>
                </g>
                <path d="M0.407424501,8 L10.5925755,8 C10.8175635,8 11,7.82492097 11,7.60900641 L11,0.390993595 C11,0.17503474 10.8175635,0 10.5925755,0 L1.76967518,0 C0.79228097,4.4290167e-05 0,0.760373588 0,1.69835074 L0,7.60900641 C0,7.82496526 0.182436458,8 0.407424501,8 Z" id="Shape" fill="#41479B"></path>
                <g id="Group" transform="translate(1.000000, 1.000000)" fill="#F5F5F5">
                    <path d="M0.511327014,0.0644895105 L0.603933649,0.310363636 L0.896682464,0.312335664 C0.934597156,0.312629371 0.95028436,0.355426573 0.919810427,0.375356643 L0.684312796,0.529300699 L0.772654028,0.776391608 C0.784123223,0.808363636 0.742938389,0.834881119 0.712085308,0.815328671 L0.473933649,0.664657343 L0.235781991,0.815370629 C0.20492891,0.834923077 0.163838863,0.808405594 0.17521327,0.776433566 L0.263554502,0.529342657 L0.028056872,0.375398601 C-0.00241706161,0.355426573 0.0132701422,0.312629371 0.0511848341,0.312377622 L0.343933649,0.310405594 L0.436540284,0.0645314685 C0.448483412,0.0326433566 0.4992891,0.0326433566 0.511327014,0.0644895105 Z" id="Shape"></path>
                    <path d="M0.511327014,1.35067133 L0.603933649,1.59654545 L0.896682464,1.59851748 C0.934597156,1.59881119 0.95028436,1.64156643 0.919810427,1.66153846 L0.684312796,1.81552448 L0.772654028,2.06261538 C0.784123223,2.09458741 0.742938389,2.1211049 0.712085308,2.10155245 L0.473933649,1.95088112 L0.235781991,2.10159441 C0.20492891,2.1211049 0.163838863,2.09462937 0.17521327,2.06265734 L0.263554502,1.81556643 L0.028056872,1.66158042 C-0.00241706161,1.64160839 0.0132701422,1.59885315 0.0511848341,1.59855944 L0.343933649,1.59658741 L0.436540284,1.35071329 C0.448483412,1.31886713 0.4992891,1.31886713 0.511327014,1.35067133 Z" id="Shape"></path>
                    <path d="M0.511327014,2.6368951 L0.603933649,2.88276923 L0.896682464,2.88474126 C0.934597156,2.88503497 0.95028436,2.92779021 0.919810427,2.94776224 L0.684312796,3.10174825 L0.772654028,3.34883916 C0.784123223,3.38081119 0.742938389,3.40732867 0.712085308,3.38777622 L0.473933649,3.2371049 L0.235781991,3.38781818 C0.20492891,3.40732867 0.163838863,3.3808951 0.17521327,3.34888112 L0.263554502,3.10179021 L0.028056872,2.9478042 C-0.00241706161,2.92783217 0.0132701422,2.88507692 0.0511848341,2.88478322 L0.343933649,2.88281119 L0.436540284,2.63693706 C0.448483412,2.60504895 0.4992891,2.60504895 0.511327014,2.6368951 Z" id="Shape"></path>
                    <path d="M0.511327014,3.92307692 L0.603933649,4.16895105 L0.896682464,4.17092308 C0.934597156,4.17121678 0.95028436,4.21401399 0.919810427,4.23394406 L0.684312796,4.38793007 L0.772654028,4.63502098 C0.784123223,4.66699301 0.742938389,4.69351049 0.712085308,4.67395804 L0.473933649,4.52328671 L0.235781991,4.674 C0.20492891,4.69351049 0.163838863,4.66703497 0.17521327,4.63506294 L0.263554502,4.38797203 L0.028056872,4.23398601 C-0.00241706161,4.2140979 0.0132701422,4.17125874 0.0511848341,4.17096503 L0.343933649,4.16899301 L0.436540284,3.92311888 C0.448483412,3.89123077 0.4992891,3.89123077 0.511327014,3.92307692 Z" id="Shape"></path>
                    <path d="M0.511327014,5.20925874 L0.603933649,5.45513287 L0.896682464,5.4571049 C0.934597156,5.4573986 0.95028436,5.50015385 0.919810427,5.52012587 L0.684312796,5.67411189 L0.772654028,5.9212028 C0.784123223,5.95317483 0.742938389,5.97969231 0.712085308,5.96013986 L0.473933649,5.80946853 L0.235781991,5.96018182 C0.20492891,5.97969231 0.163838863,5.95321678 0.17521327,5.92124476 L0.263554502,5.67415385 L0.028056872,5.52016783 C-0.00241706161,5.5001958 0.0132701422,5.45744056 0.0511848341,5.45714685 L0.343933649,5.45517483 L0.436540284,5.2093007 C0.448483412,5.17745455 0.4992891,5.17745455 0.511327014,5.20925874 Z" id="Shape"></path>
                    <path d="M1.63895735,0.695076923 L1.73156398,0.940951049 L2.0243128,0.942923077 C2.06222749,0.943216783 2.07791469,0.986013986 2.04744076,1.00594406 L1.81194313,1.15993007 L1.90028436,1.40702098 C1.91175355,1.43899301 1.87056872,1.46551049 1.83971564,1.44595804 L1.60156398,1.29524476 L1.36341232,1.44595804 C1.33255924,1.46546853 1.29146919,1.43899301 1.3028436,1.40702098 L1.39118483,1.15993007 L1.1556872,1.00594406 C1.12521327,0.985972028 1.14090047,0.943216783 1.17881517,0.942923077 L1.47156398,0.940951049 L1.56417062,0.695076923 C1.57611374,0.663272727 1.62696682,0.663272727 1.63895735,0.695076923 Z" id="Shape"></path>
                    <path d="M1.63895735,1.9813007 L1.73156398,2.22717483 L2.0243128,2.22914685 C2.06222749,2.22944056 2.07791469,2.27223776 2.04744076,2.29216783 L1.81194313,2.44615385 L1.90028436,2.69324476 C1.91175355,2.72521678 1.87056872,2.75173427 1.83971564,2.73218182 L1.60156398,2.58146853 L1.36341232,2.73218182 C1.33255924,2.75169231 1.29146919,2.72525874 1.3028436,2.69324476 L1.39118483,2.44615385 L1.1556872,2.29216783 C1.12521327,2.27227972 1.14090047,2.22944056 1.17881517,2.22914685 L1.47156398,2.22717483 L1.56417062,1.9813007 C1.57611374,1.94945455 1.62696682,1.94945455 1.63895735,1.9813007 Z" id="Shape"></path>
                    <path d="M1.63895735,3.26748252 L1.73156398,3.51335664 L2.0243128,3.51532867 C2.06222749,3.51562238 2.07791469,3.55837762 2.04744076,3.57834965 L1.81194313,3.73233566 L1.90028436,3.97942657 C1.91175355,4.0113986 1.87056872,4.03791608 1.83971564,4.01836364 L1.60156398,3.86765035 L1.36341232,4.01836364 C1.33255924,4.03787413 1.29146919,4.0113986 1.3028436,3.97942657 L1.39118483,3.73233566 L1.1556872,3.57834965 C1.12521327,3.55837762 1.14090047,3.51562238 1.17881517,3.51532867 L1.47156398,3.51335664 L1.56417062,3.26748252 C1.57611374,3.23563636 1.62696682,3.23563636 1.63895735,3.26748252 Z" id="Shape"></path>
                    <path d="M1.63895735,4.55366434 L1.73156398,4.79953846 L2.0243128,4.80151049 C2.06222749,4.8018042 2.07791469,4.84455944 2.04744076,4.86453147 L1.81194313,5.01851748 L1.90028436,5.26560839 C1.91175355,5.29758042 1.87056872,5.3240979 1.83971564,5.30454545 L1.60156398,5.15383217 L1.36341232,5.30454545 C1.33255924,5.3240979 1.29146919,5.29758042 1.3028436,5.26560839 L1.39118483,5.01851748 L1.1556872,4.86453147 C1.12521327,4.84455944 1.14090047,4.8018042 1.17881517,4.80151049 L1.47156398,4.79953846 L1.56417062,4.55366434 C1.57611374,4.52186014 1.62696682,4.52186014 1.63895735,4.55366434 Z" id="Shape"></path>
                    <path d="M2.76658768,0.0644895105 L2.85919431,0.310363636 L3.15194313,0.312335664 C3.18985782,0.312629371 3.20554502,0.355426573 3.17507109,0.375356643 L2.93957346,0.529300699 L3.02791469,0.776391608 C3.03938389,0.808363636 2.99819905,0.834881119 2.96734597,0.815328671 L2.72919431,0.664615385 L2.49104265,0.815328671 C2.46018957,0.834881119 2.41909953,0.808363636 2.43047393,0.776391608 L2.51881517,0.529300699 L2.28331754,0.375356643 C2.2528436,0.355384615 2.26853081,0.312587413 2.3064455,0.312335664 L2.59919431,0.310363636 L2.69180095,0.0644895105 C2.70374408,0.0326433566 2.75459716,0.0326433566 2.76658768,0.0644895105 Z" id="Shape"></path>
                    <path d="M2.76658768,1.35067133 L2.85919431,1.59654545 L3.15194313,1.59851748 C3.18985782,1.59881119 3.20554502,1.64156643 3.17507109,1.66153846 L2.93957346,1.81552448 L3.02791469,2.06261538 C3.03938389,2.09458741 2.99819905,2.1211049 2.96734597,2.10155245 L2.72919431,1.95083916 L2.49104265,2.10155245 C2.46018957,2.12106294 2.41909953,2.09458741 2.43047393,2.06261538 L2.51881517,1.81552448 L2.28331754,1.66153846 C2.2528436,1.64156643 2.26853081,1.59881119 2.3064455,1.59851748 L2.59919431,1.59654545 L2.69180095,1.35067133 C2.70374408,1.31886713 2.75459716,1.31886713 2.76658768,1.35067133 Z" id="Shape"></path>
                    <path d="M2.76658768,2.6368951 L2.85919431,2.88276923 L3.15194313,2.88474126 C3.18985782,2.88503497 3.20554502,2.92779021 3.17507109,2.94776224 L2.93957346,3.10174825 L3.02791469,3.34883916 C3.03938389,3.38081119 2.99819905,3.40732867 2.96734597,3.38777622 L2.72919431,3.23706294 L2.49104265,3.38777622 C2.46018957,3.40728671 2.41909953,3.38085315 2.43047393,3.34883916 L2.51881517,3.10174825 L2.28331754,2.94776224 C2.2528436,2.92779021 2.26853081,2.88503497 2.3064455,2.88474126 L2.59919431,2.88276923 L2.69180095,2.6368951 C2.70374408,2.60504895 2.75459716,2.60504895 2.76658768,2.6368951 Z" id="Shape"></path>
                    <path d="M2.76658768,3.92307692 L2.85919431,4.16895105 L3.15194313,4.17092308 C3.18985782,4.17121678 3.20554502,4.21401399 3.17507109,4.23394406 L2.93957346,4.38793007 L3.02791469,4.63502098 C3.03938389,4.66699301 2.99819905,4.69351049 2.96734597,4.67395804 L2.72919431,4.52324476 L2.49104265,4.67395804 C2.46018957,4.69346853 2.41909953,4.66699301 2.43047393,4.63502098 L2.51881517,4.38793007 L2.28331754,4.23394406 C2.2528436,4.21405594 2.26853081,4.17121678 2.3064455,4.17092308 L2.59919431,4.16895105 L2.69180095,3.92307692 C2.70374408,3.89123077 2.75459716,3.89123077 2.76658768,3.92307692 Z" id="Shape"></path>
                    <path d="M2.76658768,5.20925874 L2.85919431,5.45513287 L3.15194313,5.4571049 C3.18985782,5.4573986 3.20554502,5.50015385 3.17507109,5.52012587 L2.93957346,5.67411189 L3.02791469,5.9212028 C3.03938389,5.95317483 2.99819905,5.97969231 2.96734597,5.96013986 L2.72919431,5.80942657 L2.49104265,5.96013986 C2.46018957,5.97965035 2.41909953,5.95317483 2.43047393,5.9212028 L2.51881517,5.67411189 L2.28331754,5.52012587 C2.2528436,5.50015385 2.26853081,5.4573986 2.3064455,5.4571049 L2.59919431,5.45513287 L2.69180095,5.20925874 C2.70374408,5.17745455 2.75459716,5.17745455 2.76658768,5.20925874 Z" id="Shape"></path>
                    <path d="M3.8942654,0.695076923 L3.98687204,0.940951049 L4.27962085,0.942923077 C4.31753555,0.943216783 4.33322275,0.986013986 4.30274882,1.00594406 L4.06725118,1.15993007 L4.15559242,1.40702098 C4.16706161,1.43899301 4.12587678,1.46551049 4.0950237,1.44595804 L3.85687204,1.29524476 L3.61872038,1.44595804 C3.5878673,1.46546853 3.54677725,1.43899301 3.55815166,1.40702098 L3.64649289,1.15993007 L3.41099526,1.00594406 C3.38052133,0.985972028 3.39620853,0.943216783 3.43412322,0.942923077 L3.72687204,0.940951049 L3.81947867,0.695076923 C3.83137441,0.663272727 3.88227488,0.663272727 3.8942654,0.695076923 Z" id="Shape"></path>
                    <path d="M3.8942654,1.9813007 L3.98687204,2.22717483 L4.27962085,2.22914685 C4.31753555,2.22944056 4.33322275,2.27223776 4.30274882,2.29216783 L4.06725118,2.44615385 L4.15559242,2.69324476 C4.16706161,2.72521678 4.12587678,2.75173427 4.0950237,2.73218182 L3.85687204,2.58146853 L3.61872038,2.73218182 C3.5878673,2.75169231 3.54677725,2.72525874 3.55815166,2.69324476 L3.64649289,2.44615385 L3.41099526,2.29216783 C3.38052133,2.27227972 3.39620853,2.22944056 3.43412322,2.22914685 L3.72687204,2.22717483 L3.81947867,1.9813007 C3.83137441,1.94945455 3.88227488,1.94945455 3.8942654,1.9813007 Z" id="Shape"></path>
                    <path d="M3.8942654,3.26748252 L3.98687204,3.51335664 L4.27962085,3.51532867 C4.31753555,3.51562238 4.33322275,3.55837762 4.30274882,3.57834965 L4.06725118,3.73233566 L4.15559242,3.97942657 C4.16706161,4.0113986 4.12587678,4.03791608 4.0950237,4.01836364 L3.85687204,3.86765035 L3.61872038,4.01836364 C3.5878673,4.03787413 3.54677725,4.0113986 3.55815166,3.97942657 L3.64649289,3.73233566 L3.41099526,3.57834965 C3.38052133,3.55837762 3.39620853,3.51562238 3.43412322,3.51532867 L3.72687204,3.51335664 L3.81947867,3.26748252 C3.83137441,3.23563636 3.88227488,3.23563636 3.8942654,3.26748252 Z" id="Shape"></path>
                    <path d="M3.8942654,4.55366434 L3.98687204,4.79953846 L4.27962085,4.80151049 C4.31753555,4.8018042 4.33322275,4.84455944 4.30274882,4.86453147 L4.06725118,5.01851748 L4.15559242,5.26560839 C4.16706161,5.29758042 4.12587678,5.3240979 4.0950237,5.30454545 L3.85687204,5.15383217 L3.61872038,5.30454545 C3.5878673,5.3240979 3.54677725,5.29758042 3.55815166,5.26560839 L3.64649289,5.01851748 L3.41099526,4.86453147 C3.38052133,4.84455944 3.39620853,4.8018042 3.43412322,4.80151049 L3.72687204,4.79953846 L3.81947867,4.55366434 C3.83137441,4.52186014 3.88227488,4.52186014 3.8942654,4.55366434 Z" id="Shape"></path>
                    <path d="M5.02189573,0.0644895105 L5.11450237,0.310363636 L5.40725118,0.312335664 C5.44516588,0.312629371 5.46085308,0.355426573 5.43037915,0.375356643 L5.19488152,0.529300699 L5.28322275,0.776391608 C5.29469194,0.808363636 5.25350711,0.834881119 5.22265403,0.815328671 L4.98445498,0.664657343 L4.74630332,0.815370629 C4.71545024,0.834923077 4.67436019,0.808405594 4.6857346,0.776433566 L4.77407583,0.529342657 L4.5385782,0.375398601 C4.50810427,0.355426573 4.52379147,0.312629371 4.56170616,0.312377622 L4.85445498,0.310405594 L4.94706161,0.0645314685 C4.95905213,0.0326433566 5.00990521,0.0326433566 5.02189573,0.0644895105 Z" id="Shape"></path>
                    <path d="M5.02189573,1.35067133 L5.11450237,1.59654545 L5.40725118,1.59851748 C5.44516588,1.59881119 5.46085308,1.64156643 5.43037915,1.66153846 L5.19488152,1.81552448 L5.28322275,2.06261538 C5.29469194,2.09458741 5.25350711,2.1211049 5.22265403,2.10155245 L4.98445498,1.95083916 L4.74630332,2.10155245 C4.71545024,2.12106294 4.67436019,2.09458741 4.6857346,2.06261538 L4.77407583,1.81552448 L4.5385782,1.66153846 C4.50810427,1.64156643 4.52379147,1.59881119 4.56170616,1.59851748 L4.85445498,1.59654545 L4.94706161,1.35067133 C4.95905213,1.31886713 5.00990521,1.31886713 5.02189573,1.35067133 Z" id="Shape"></path>
                    <path d="M5.02189573,2.6368951 L5.11450237,2.88276923 L5.40725118,2.88474126 C5.44516588,2.88503497 5.46085308,2.92779021 5.43037915,2.94776224 L5.19488152,3.10174825 L5.28322275,3.34883916 C5.29469194,3.38081119 5.25350711,3.40732867 5.22265403,3.38777622 L4.98445498,3.23702098 L4.74630332,3.38773427 C4.71545024,3.40724476 4.67436019,3.38076923 4.6857346,3.3487972 L4.77407583,3.10170629 L4.5385782,2.94772028 C4.50810427,2.92774825 4.52379147,2.88499301 4.56170616,2.8846993 L4.85445498,2.88272727 L4.94706161,2.63685315 C4.95905213,2.60504895 5.00990521,2.60504895 5.02189573,2.6368951 Z" id="Shape"></path>
                    <path d="M5.02189573,3.92307692 L5.11450237,4.16895105 L5.40725118,4.17092308 C5.44516588,4.17121678 5.46085308,4.21401399 5.43037915,4.23394406 L5.19488152,4.38793007 L5.28322275,4.63502098 C5.29469194,4.66699301 5.25350711,4.69351049 5.22265403,4.67395804 L4.98445498,4.52324476 L4.74630332,4.67395804 C4.71545024,4.69346853 4.67436019,4.66699301 4.6857346,4.63502098 L4.77407583,4.38793007 L4.5385782,4.23394406 C4.50810427,4.21405594 4.52379147,4.17121678 4.56170616,4.17092308 L4.85445498,4.16895105 L4.94706161,3.92307692 C4.95905213,3.89123077 5.00990521,3.89123077 5.02189573,3.92307692 Z" id="Shape"></path>
                    <path d="M5.02189573,5.20925874 L5.11450237,5.45513287 L5.40725118,5.4571049 C5.44516588,5.4573986 5.46085308,5.50015385 5.43037915,5.52012587 L5.19488152,5.67411189 L5.28322275,5.9212028 C5.29469194,5.95317483 5.25350711,5.97969231 5.22265403,5.96013986 L4.98445498,5.80942657 L4.74630332,5.96013986 C4.71545024,5.97965035 4.67436019,5.95317483 4.6857346,5.9212028 L4.77407583,5.67411189 L4.5385782,5.52012587 C4.50810427,5.50015385 4.52379147,5.4573986 4.56170616,5.4571049 L4.85445498,5.45513287 L4.94706161,5.20925874 C4.95905213,5.17745455 5.00990521,5.17745455 5.02189573,5.20925874 Z" id="Shape"></path>
                    <path d="M6.14952607,0.695076923 L6.2421327,0.940951049 L6.53488152,0.942923077 C6.57279621,0.943216783 6.58848341,0.986013986 6.55800948,1.00594406 L6.32251185,1.15993007 L6.41085308,1.40702098 C6.42232227,1.43899301 6.38113744,1.46551049 6.35028436,1.44595804 L6.1121327,1.29524476 L5.87398104,1.44595804 C5.84312796,1.46546853 5.80203791,1.43899301 5.81341232,1.40702098 L5.90175355,1.15993007 L5.66625592,1.00594406 C5.63578199,0.985972028 5.65146919,0.943216783 5.68938389,0.942923077 L5.9821327,0.940951049 L6.07473934,0.695076923 C6.08672986,0.663272727 6.13753555,0.663272727 6.14952607,0.695076923 Z" id="Shape"></path>
                    <path d="M6.14952607,1.9813007 L6.2421327,2.22717483 L6.53488152,2.22914685 C6.57279621,2.22944056 6.58848341,2.27223776 6.55800948,2.29216783 L6.32251185,2.44615385 L6.41085308,2.69324476 C6.42232227,2.72521678 6.38113744,2.75173427 6.35028436,2.73218182 L6.1121327,2.58146853 L5.87398104,2.73218182 C5.84312796,2.75169231 5.80203791,2.72525874 5.81341232,2.69324476 L5.90175355,2.44615385 L5.66625592,2.29216783 C5.63578199,2.27227972 5.65146919,2.22944056 5.68938389,2.22914685 L5.9821327,2.22717483 L6.07473934,1.9813007 C6.08672986,1.94945455 6.13753555,1.94945455 6.14952607,1.9813007 Z" id="Shape"></path>
                    <path d="M6.14952607,3.26748252 L6.2421327,3.51335664 L6.53488152,3.51532867 C6.57279621,3.51562238 6.58848341,3.55837762 6.55800948,3.57834965 L6.32251185,3.73233566 L6.41085308,3.97942657 C6.42232227,4.0113986 6.38113744,4.03791608 6.35028436,4.01836364 L6.1121327,3.86765035 L5.87398104,4.01836364 C5.84312796,4.03787413 5.80203791,4.0113986 5.81341232,3.97942657 L5.90175355,3.73233566 L5.66625592,3.57834965 C5.63578199,3.55837762 5.65146919,3.51562238 5.68938389,3.51532867 L5.9821327,3.51335664 L6.07473934,3.26748252 C6.08672986,3.23563636 6.13753555,3.23563636 6.14952607,3.26748252 Z" id="Shape"></path>
                    <path d="M6.14952607,4.55366434 L6.2421327,4.79953846 L6.53488152,4.80151049 C6.57279621,4.8018042 6.58848341,4.84455944 6.55800948,4.86453147 L6.32251185,5.01851748 L6.41085308,5.26560839 C6.42232227,5.29758042 6.38113744,5.3240979 6.35028436,5.30454545 L6.1121327,5.15383217 L5.87398104,5.30454545 C5.84312796,5.3240979 5.80203791,5.29758042 5.81341232,5.26560839 L5.90175355,5.01851748 L5.66625592,4.86453147 C5.63578199,4.84455944 5.65146919,4.8018042 5.68938389,4.80151049 L5.9821327,4.79953846 L6.07473934,4.55366434 C6.08672986,4.52186014 6.13753555,4.52186014 6.14952607,4.55366434 Z" id="Shape"></path>
                    <path d="M7.27720379,0.0644895105 L7.36981043,0.310363636 L7.66255924,0.312335664 C7.70047393,0.312629371 7.71616114,0.355426573 7.6856872,0.375356643 L7.45018957,0.529300699 L7.53853081,0.776391608 C7.55,0.808363636 7.50881517,0.834881119 7.47796209,0.815328671 L7.23981043,0.664615385 L7.00165877,0.815328671 C6.97080569,0.834881119 6.92971564,0.808363636 6.94109005,0.776391608 L7.02943128,0.529300699 L6.79393365,0.375356643 C6.76345972,0.355384615 6.77914692,0.312587413 6.81706161,0.312335664 L7.10981043,0.310363636 L7.20241706,0.0644895105 C7.2143128,0.0326433566 7.26521327,0.0326433566 7.27720379,0.0644895105 Z" id="Shape"></path>
                    <path d="M7.27720379,1.35067133 L7.36981043,1.59654545 L7.66255924,1.59851748 C7.70047393,1.59881119 7.71616114,1.64156643 7.6856872,1.66153846 L7.45018957,1.81552448 L7.53853081,2.06261538 C7.55,2.09458741 7.50881517,2.1211049 7.47796209,2.10155245 L7.23981043,1.95083916 L7.00165877,2.10155245 C6.97080569,2.12106294 6.92971564,2.09458741 6.94109005,2.06261538 L7.02943128,1.81552448 L6.79393365,1.66153846 C6.76345972,1.64156643 6.77914692,1.59881119 6.81706161,1.59851748 L7.10981043,1.59654545 L7.20241706,1.35067133 C7.2143128,1.31886713 7.26521327,1.31886713 7.27720379,1.35067133 Z" id="Shape"></path>
                    <path d="M7.27720379,2.6368951 L7.36981043,2.88276923 L7.66255924,2.88474126 C7.70047393,2.88503497 7.71616114,2.92779021 7.6856872,2.94776224 L7.45018957,3.10174825 L7.53853081,3.34883916 C7.55,3.38081119 7.50881517,3.40732867 7.47796209,3.38777622 L7.23981043,3.23706294 L7.00165877,3.38777622 C6.97080569,3.40728671 6.92971564,3.38085315 6.94109005,3.34883916 L7.02943128,3.10174825 L6.79393365,2.94776224 C6.76345972,2.92779021 6.77914692,2.88503497 6.81706161,2.88474126 L7.10981043,2.88276923 L7.20241706,2.6368951 C7.2143128,2.60504895 7.26521327,2.60504895 7.27720379,2.6368951 Z" id="Shape"></path>
                    <path d="M7.27720379,3.92307692 L7.36981043,4.16895105 L7.66255924,4.17092308 C7.70047393,4.17121678 7.71616114,4.21401399 7.6856872,4.23394406 L7.45018957,4.38793007 L7.53853081,4.63502098 C7.55,4.66699301 7.50881517,4.69351049 7.47796209,4.67395804 L7.23981043,4.52324476 L7.00165877,4.67395804 C6.97080569,4.69346853 6.92971564,4.66699301 6.94109005,4.63502098 L7.02943128,4.38793007 L6.79393365,4.23394406 C6.76345972,4.21405594 6.77914692,4.17121678 6.81706161,4.17092308 L7.10981043,4.16895105 L7.20241706,3.92307692 C7.2143128,3.89123077 7.26521327,3.89123077 7.27720379,3.92307692 Z" id="Shape"></path>
                    <path d="M7.27720379,5.20925874 L7.36981043,5.45513287 L7.66255924,5.4571049 C7.70047393,5.4573986 7.71616114,5.50015385 7.6856872,5.52012587 L7.45018957,5.67411189 L7.53853081,5.9212028 C7.55,5.95317483 7.50881517,5.97969231 7.47796209,5.96013986 L7.23981043,5.80942657 L7.00165877,5.96013986 C6.97080569,5.97965035 6.92971564,5.95317483 6.94109005,5.9212028 L7.02943128,5.67411189 L6.79393365,5.52012587 C6.76345972,5.50015385 6.77914692,5.4573986 6.81706161,5.4571049 L7.10981043,5.45513287 L7.20241706,5.20925874 C7.2143128,5.17745455 7.26521327,5.17745455 7.27720379,5.20925874 Z" id="Shape"></path>
                    <path d="M8.40483412,0.695076923 L8.49744076,0.940951049 L8.79018957,0.942923077 C8.82810427,0.943216783 8.84379147,0.986013986 8.81331754,1.00594406 L8.57781991,1.15993007 L8.66616114,1.40702098 C8.67763033,1.43899301 8.6364455,1.46551049 8.60559242,1.44595804 L8.36744076,1.29524476 L8.1292891,1.44595804 C8.09843602,1.46546853 8.05734597,1.43899301 8.06872038,1.40702098 L8.15706161,1.15993007 L7.92156398,1.00594406 C7.89109005,0.985972028 7.90677725,0.943216783 7.94469194,0.942923077 L8.23744076,0.940951049 L8.33004739,0.695076923 C8.34199052,0.663272727 8.3928436,0.663272727 8.40483412,0.695076923 Z" id="Shape"></path>
                    <path d="M8.40483412,1.9813007 L8.49744076,2.22717483 L8.79018957,2.22914685 C8.82810427,2.22944056 8.84379147,2.27223776 8.81331754,2.29216783 L8.57781991,2.44615385 L8.66616114,2.69324476 C8.67763033,2.72521678 8.6364455,2.75173427 8.60559242,2.73218182 L8.36744076,2.58146853 L8.1292891,2.73218182 C8.09843602,2.75169231 8.05734597,2.72525874 8.06872038,2.69324476 L8.15706161,2.44615385 L7.92156398,2.29216783 C7.89109005,2.27227972 7.90677725,2.22944056 7.94469194,2.22914685 L8.23744076,2.22717483 L8.33004739,1.9813007 C8.34199052,1.94945455 8.3928436,1.94945455 8.40483412,1.9813007 Z" id="Shape"></path>
                    <path d="M8.40483412,3.26748252 L8.49744076,3.51335664 L8.79018957,3.51532867 C8.82810427,3.51562238 8.84379147,3.55837762 8.81331754,3.57834965 L8.57781991,3.73233566 L8.66616114,3.97942657 C8.67763033,4.0113986 8.6364455,4.03791608 8.60559242,4.01836364 L8.36744076,3.86765035 L8.1292891,4.01836364 C8.09843602,4.03787413 8.05734597,4.0113986 8.06872038,3.97942657 L8.15706161,3.73233566 L7.92156398,3.57834965 C7.89109005,3.55837762 7.90677725,3.51562238 7.94469194,3.51532867 L8.23744076,3.51335664 L8.33004739,3.26748252 C8.34199052,3.23563636 8.3928436,3.23563636 8.40483412,3.26748252 Z" id="Shape"></path>
                    <path d="M8.40483412,4.55366434 L8.49744076,4.79953846 L8.79018957,4.80151049 C8.82810427,4.8018042 8.84379147,4.84455944 8.81331754,4.86453147 L8.57781991,5.01851748 L8.66616114,5.26560839 C8.67763033,5.29758042 8.6364455,5.3240979 8.60559242,5.30454545 L8.36744076,5.15383217 L8.1292891,5.30454545 C8.09843602,5.3240979 8.05734597,5.29758042 8.06872038,5.26560839 L8.15706161,5.01851748 L7.92156398,4.86453147 C7.89109005,4.84455944 7.90677725,4.8018042 7.94469194,4.80151049 L8.23744076,4.79953846 L8.33004739,4.55366434 C8.34199052,4.52186014 8.3928436,4.52186014 8.40483412,4.55366434 Z" id="Shape"></path>
                    <path d="M9.53251185,0.0644895105 L9.62511848,0.310363636 L9.9178673,0.312335664 C9.95578199,0.312629371 9.97146919,0.355426573 9.94099526,0.375356643 L9.70549763,0.529300699 L9.79383886,0.776391608 C9.80530806,0.808363636 9.76412322,0.834881119 9.73327014,0.815328671 L9.49511848,0.664615385 L9.25696682,0.815328671 C9.22611374,0.834881119 9.1850237,0.808363636 9.1963981,0.776391608 L9.28473934,0.529300699 L9.04924171,0.375356643 C9.01876777,0.355384615 9.03445498,0.312587413 9.07236967,0.312335664 L9.36511848,0.310363636 L9.45772512,0.0644895105 C9.46966825,0.0326433566 9.52047393,0.0326433566 9.53251185,0.0644895105 Z" id="Shape"></path>
                    <path d="M9.53251185,1.35067133 L9.62511848,1.59654545 L9.9178673,1.59851748 C9.95578199,1.59881119 9.97146919,1.64156643 9.94099526,1.66153846 L9.70549763,1.81552448 L9.79383886,2.06261538 C9.80530806,2.09458741 9.76412322,2.1211049 9.73327014,2.10155245 L9.49511848,1.95083916 L9.25696682,2.10155245 C9.22611374,2.12106294 9.1850237,2.09458741 9.1963981,2.06261538 L9.28473934,1.81552448 L9.04924171,1.66153846 C9.01876777,1.64156643 9.03445498,1.59881119 9.07236967,1.59851748 L9.36511848,1.59654545 L9.45772512,1.35067133 C9.46966825,1.31886713 9.52047393,1.31886713 9.53251185,1.35067133 Z" id="Shape"></path>
                    <path d="M9.53251185,2.6368951 L9.62511848,2.88276923 L9.9178673,2.88474126 C9.95578199,2.88503497 9.97146919,2.92779021 9.94099526,2.94776224 L9.70549763,3.10174825 L9.79383886,3.34883916 C9.80530806,3.38081119 9.76412322,3.40732867 9.73327014,3.38777622 L9.49511848,3.23706294 L9.25696682,3.38777622 C9.22611374,3.40728671 9.1850237,3.38085315 9.1963981,3.34883916 L9.28473934,3.10174825 L9.04924171,2.94776224 C9.01876777,2.92779021 9.03445498,2.88503497 9.07236967,2.88474126 L9.36511848,2.88276923 L9.45772512,2.6368951 C9.46966825,2.60504895 9.52047393,2.60504895 9.53251185,2.6368951 Z" id="Shape"></path>
                    <path d="M9.53251185,3.92307692 L9.62511848,4.16895105 L9.9178673,4.17092308 C9.95578199,4.17121678 9.97146919,4.21401399 9.94099526,4.23394406 L9.70549763,4.38793007 L9.79383886,4.63502098 C9.80530806,4.66699301 9.76412322,4.69351049 9.73327014,4.67395804 L9.49511848,4.52324476 L9.25696682,4.67395804 C9.22611374,4.69346853 9.1850237,4.66699301 9.1963981,4.63502098 L9.28473934,4.38793007 L9.04924171,4.23394406 C9.01876777,4.21405594 9.03445498,4.17121678 9.07236967,4.17092308 L9.36511848,4.16895105 L9.45772512,3.92307692 C9.46966825,3.89123077 9.52047393,3.89123077 9.53251185,3.92307692 Z" id="Shape"></path>
                    <path d="M9.53251185,5.20925874 L9.62511848,5.45513287 L9.9178673,5.4571049 C9.95578199,5.4573986 9.97146919,5.50015385 9.94099526,5.52012587 L9.70549763,5.67411189 L9.79383886,5.9212028 C9.80530806,5.95317483 9.76412322,5.97969231 9.73327014,5.96013986 L9.49511848,5.80942657 L9.25696682,5.96013986 C9.22611374,5.97965035 9.1850237,5.95317483 9.1963981,5.9212028 L9.28473934,5.67411189 L9.04924171,5.52012587 C9.01876777,5.50015385 9.03445498,5.4573986 9.07236967,5.4571049 L9.36511848,5.45513287 L9.45772512,5.20925874 C9.46966825,5.17745455 9.52047393,5.17745455 9.53251185,5.20925874 Z" id="Shape"></path>
                </g>
            </g>
        </g>
    </g>
</svg>